<svg xmlns="http://www.w3.org/2000/svg" width="1200" height="520" viewBox="0 0 1200 520" role="img" aria-labelledby="title desc">
  <title id="title">WClock tablet preview</title>
  <desc id="desc">Tablet preview with photo wall, clock panel and weather panel.</desc>
  <defs>
    <linearGradient id="screen" x1="0" y1="0" x2="1" y2="1">
      <stop offset="0" stop-color="#213142"/>
      <stop offset="0.55" stop-color="#111820"/>
      <stop offset="1" stop-color="#06090d"/>
    </linearGradient>
    <linearGradient id="photo1" x1="0" y1="0" x2="1" y2="1">
      <stop offset="0" stop-color="#d9edf2"/>
      <stop offset="1" stop-color="#28485a"/>
    </linearGradient>
    <linearGradient id="photo2" x1="0" y1="0" x2="1" y2="1">
      <stop offset="0" stop-color="#f6c04f"/>
      <stop offset="0.45" stop-color="#df5135"/>
      <stop offset="1" stop-color="#253b58"/>
    </linearGradient>
    <linearGradient id="photo3" x1="0" y1="0" x2="1" y2="1">
      <stop offset="0" stop-color="#b8d6a8"/>
      <stop offset="1" stop-color="#2a4a35"/>
    </linearGradient>
    <filter id="shadow" x="-20%" y="-20%" width="140%" height="140%">
      <feDropShadow dx="0" dy="12" stdDeviation="14" flood-color="#000" flood-opacity="0.35"/>
    </filter>
  </defs>
  <rect width="1200" height="520" fill="#f6f8fa"/>
  <rect x="54" y="42" width="1092" height="436" rx="38" fill="#11161d"/>
  <rect x="78" y="66" width="1044" height="388" rx="18" fill="url(#screen)"/>
  <g filter="url(#shadow)" opacity="0.96">
    <g transform="translate(116 88) rotate(-5 116 150)">
      <rect width="230" height="308" rx="8" fill="#f8f8f3"/>
      <rect x="10" y="10" width="210" height="288" rx="5" fill="url(#photo1)"/>
      <circle cx="92" cy="82" r="38" fill="#f4cfb7" opacity="0.75"/>
      <path d="M10 224 C84 162, 144 184, 220 118 L220 298 L10 298 Z" fill="#1f3d4d" opacity="0.58"/>
    </g>
    <g transform="translate(346 70) rotate(4 152 176)">
      <rect width="304" height="352" rx="8" fill="#f8f8f3"/>
      <rect x="10" y="10" width="284" height="332" rx="5" fill="url(#photo2)"/>
      <rect x="54" y="28" width="20" height="296" fill="#152435" opacity="0.5"/>
      <rect x="104" y="28" width="22" height="296" fill="#f7f0d6" opacity="0.5"/>
      <rect x="158" y="28" width="20" height="296" fill="#2b80a1" opacity="0.45"/>
      <rect x="214" y="28" width="20" height="296" fill="#f07f2e" opacity="0.45"/>
      <circle cx="152" cy="154" r="42" fill="#deb796" opacity="0.72"/>
    </g>
    <g transform="translate(642 82) rotate(-3 144 168)">
      <rect width="288" height="336" rx="8" fill="#f8f8f3"/>
      <rect x="10" y="10" width="268" height="316" rx="5" fill="url(#photo3)"/>
      <path d="M10 224 C86 162, 176 176, 278 98 L278 326 L10 326 Z" fill="#1c422f" opacity="0.62"/>
    </g>
    <g transform="translate(880 96) rotate(5 112 150)">
      <rect width="224" height="300" rx="8" fill="#f8f8f3"/>
      <rect x="10" y="10" width="204" height="280" rx="5" fill="#41566b"/>
      <path d="M10 202 C58 162, 128 148, 214 86 L214 290 L10 290 Z" fill="#8bb8c8" opacity="0.7"/>
    </g>
  </g>
  <rect x="112" y="332" width="258" height="98" rx="8" fill="#05080c" opacity="0.74"/>
  <text x="136" y="392" font-family="Segoe UI, Arial, sans-serif" font-size="54" font-weight="700" fill="#fff">20 46</text>
  <text x="138" y="416" font-family="Segoe UI, Arial, sans-serif" font-size="20" fill="#b8c0ca">понедельник, 29 июня</text>
  <rect x="636" y="292" width="448" height="138" rx="8" fill="#05080c" opacity="0.70"/>
  <circle cx="674" cy="328" r="13" fill="none" stroke="#f5c84c" stroke-width="4"/>
  <text x="710" y="326" font-family="Segoe UI, Arial, sans-serif" font-size="25" font-weight="700" fill="#fff">Москва 20°</text>
  <text x="710" y="350" font-family="Segoe UI, Arial, sans-serif" font-size="17" fill="#c3cbd3">Ясно</text>
  <text x="662" y="386" font-family="Segoe UI, Arial, sans-serif" font-size="16" fill="#c3cbd3">день 22° / ночь 16°</text>
  <text x="662" y="412" font-family="Segoe UI, Arial, sans-serif" font-size="16" fill="#c3cbd3">влажн. 64%   давл. 761 мм рт. ст.</text>
</svg>
