<svg xmlns="http://www.w3.org/2000/svg" width="1200" height="500" viewBox="0 0 1200 500" role="img" aria-labelledby="title desc">
  <title id="title">WClock modes</title>
  <desc id="desc">Three clean cards for photo wall, photo frame and settings.</desc>
  <defs>
    <linearGradient id="wall" x1="0" y1="0" x2="1" y2="1">
      <stop offset="0" stop-color="#2d4b62"/>
      <stop offset="1" stop-color="#090c12"/>
    </linearGradient>
    <linearGradient id="frame" x1="0" y1="0" x2="1" y2="1">
      <stop offset="0" stop-color="#cab27c"/>
      <stop offset="0.55" stop-color="#5d8a94"/>
      <stop offset="1" stop-color="#1b2531"/>
    </linearGradient>
    <linearGradient id="settings" x1="0" y1="0" x2="0" y2="1">
      <stop offset="0" stop-color="#11191f"/>
      <stop offset="1" stop-color="#1f272e"/>
    </linearGradient>
  </defs>
  <rect width="1200" height="500" fill="#ffffff"/>
  <g font-family="Segoe UI, Arial, sans-serif">
    <g transform="translate(54 50)">
      <rect width="320" height="280" rx="22" fill="#11161d"/>
      <rect x="18" y="18" width="284" height="210" rx="10" fill="url(#wall)"/>
      <rect x="38" y="36" width="86" height="116" rx="5" fill="#f7f7ef" transform="rotate(-5 81 94)"/>
      <rect x="134" y="44" width="108" height="134" rx="5" fill="#f7f7ef" transform="rotate(5 188 111)"/>
      <rect x="210" y="70" width="72" height="124" rx="5" fill="#f7f7ef" transform="rotate(-3 246 132)"/>
      <rect x="36" y="170" width="112" height="48" rx="6" fill="#020408" opacity="0.74"/>
      <text x="52" y="201" font-size="28" font-weight="700" fill="#fff">20 46</text>
      <rect x="160" y="166" width="116" height="52" rx="6" fill="#020408" opacity="0.62"/>
      <text x="176" y="194" font-size="15" fill="#fff">Москва 20°</text>
      <text x="0" y="362" font-size="25" font-weight="700" fill="#1f2933">Фотостена</text>
      <text x="0" y="392" font-size="16" fill="#5b6670">Несколько фото одновременно.</text>
      <text x="0" y="416" font-size="16" fill="#5b6670">Плавная смена и защита от дублей.</text>
    </g>
    <g transform="translate(444 50)">
      <rect width="320" height="280" rx="22" fill="#11161d"/>
      <rect x="18" y="18" width="284" height="210" rx="10" fill="url(#frame)"/>
      <path d="M18 166 C92 112, 206 106, 302 58 L302 228 L18 228 Z" fill="#1b2838" opacity="0.42"/>
      <rect x="36" y="170" width="112" height="48" rx="6" fill="#020408" opacity="0.72"/>
      <text x="52" y="201" font-size="28" font-weight="700" fill="#fff">08 12</text>
      <rect x="178" y="166" width="104" height="52" rx="6" fill="#020408" opacity="0.58"/>
      <text x="194" y="195" font-size="15" fill="#fff">Погода</text>
      <text x="0" y="362" font-size="25" font-weight="700" fill="#1f2933">Фоторамка</text>
      <text x="0" y="392" font-size="16" fill="#5b6670">Одно фото на весь фон.</text>
      <text x="0" y="416" font-size="16" fill="#5b6670">Cover-fit и медленное движение.</text>
    </g>
    <g transform="translate(834 50)">
      <rect width="320" height="280" rx="22" fill="#11161d"/>
      <rect x="18" y="18" width="284" height="210" rx="10" fill="url(#settings)"/>
      <text x="44" y="60" font-size="20" font-weight="700" fill="#fff">Настройки</text>
      <rect x="44" y="84" width="220" height="2" fill="#33414d"/>
      <text x="44" y="118" font-size="15" fill="#f3f6f8">Фото</text>
      <text x="202" y="118" font-size="15" fill="#74c0fc">Фотостена</text>
      <text x="44" y="152" font-size="15" fill="#f3f6f8">Погода</text>
      <text x="202" y="152" font-size="15" fill="#74c0fc">MET Norway</text>
      <text x="44" y="186" font-size="15" fill="#f3f6f8">Яркость</text>
      <text x="202" y="186" font-size="15" fill="#74c0fc">Авто</text>
      <text x="0" y="362" font-size="25" font-weight="700" fill="#1f2933">Настройки</text>
      <text x="0" y="392" font-size="16" fill="#5b6670">Фото, погода, яркость.</text>
      <text x="0" y="416" font-size="16" fill="#5b6670">Один набор для приложения и заставки.</text>
    </g>
  </g>
</svg>
